# This file uses centimeters as units for non-parametric coordinates.

mtllib Block1.mtl
v -0.585490 0.481050 0.429277
v -0.456454 0.453278 0.500000
v -0.585490 1.115933 0.429277
v -0.456454 1.139862 0.500000
v -0.585490 1.115933 -0.429277
v -0.456454 1.139862 -0.500000
v -0.585490 0.481050 -0.429277
v -0.456454 0.453278 -0.500000
v -0.456454 1.139862 -0.200000
v -0.585490 1.115933 -0.171711
v -0.585490 0.508142 -0.110151
v -0.456454 0.453278 -0.100000
v -0.585490 1.115933 -0.051513
v -0.456454 1.139862 -0.060000
v -0.538519 1.100659 -0.089533
v -0.479007 1.123392 -0.093674
v -0.479007 1.123392 -0.161980
v -0.538519 1.100659 -0.148178
v -0.538519 0.497521 -0.106289
vt 0.375000 0.000000
vt 0.625000 0.000000
vt 0.375000 0.250000
vt 0.625000 0.250000
vt 0.375000 0.500000
vt 0.625000 0.500000
vt 0.375000 0.750000
vt 0.625000 0.750000
vt 0.375000 1.000000
vt 0.625000 1.000000
vt 0.125000 0.000000
vt 0.125000 0.250000
vt 0.625000 0.425000
vt 0.200000 0.250000
vt 0.375000 0.425000
vt 0.225000 0.000000
vt 0.375000 0.850000
vt 0.625000 0.850000
vt 0.235000 0.250000
vt 0.375000 0.390000
vt 0.625000 0.390000
vt 0.375000 0.390000
vt 0.625000 0.390000
vt 0.625000 0.425000
vt 0.375000 0.425000
vt 0.200000 0.250000
vt 0.225000 0.000000
vt 0.235000 0.250000
vn -0.480632 0.000000 0.876922
vn -0.480632 0.000000 0.876922
vn -0.480632 0.000000 0.876922
vn -0.480632 0.000000 0.876922
vn -0.290080 0.906244 -0.307531
vn -0.290583 0.906696 -0.305720
vn -0.204057 0.924249 0.322682
vn -0.205135 0.924695 0.320716
vn -0.480632 0.000000 -0.876922
vn -0.480632 0.000000 -0.876922
vn -0.480632 0.000000 -0.876922
vn -0.480632 0.000000 -0.876922
vn -0.298032 -0.954556 0.000092
vn -0.298036 -0.954555 -0.000114
vn -0.298425 -0.954163 -0.022687
vn -0.298425 -0.954163 -0.022687
vn -1.000000 0.000000 0.000000
vn -0.349156 0.058229 -0.935254
vn -0.686315 0.045195 -0.725899
vn -0.182048 0.983286 0.002657
vn -0.181886 0.983311 0.004131
vn -0.182340 0.983236 0.000000
vn -0.182340 0.983236 0.000000
vn -1.000000 0.000000 0.000000
vn -1.000000 0.000000 0.000000
vn -1.000000 0.000000 0.000000
vn -1.000000 0.000000 0.000000
vn -0.297099 -0.954170 0.035946
vn -0.297099 -0.954170 0.035946
vn -0.996701 0.005043 -0.081006
vn -0.996138 0.005456 -0.087629
vn -1.000000 -0.000000 0.000000
vn -1.000000 -0.000000 0.000000
vn -0.182340 0.983236 0.000000
vn -0.182340 0.983236 0.000000
vn -0.182756 0.983155 -0.002369
vn -0.182591 0.983188 -0.001426
vn -0.589767 0.807573 0.000000
vn -0.589767 0.807573 0.000000
vn -0.589767 0.807573 0.000000
vn -0.589767 0.807574 0.000000
vn -0.258051 0.082237 0.962625
vn -0.258051 0.082237 0.962625
vn -0.258051 0.082237 0.962625
vn -0.258051 0.082237 0.962625
s off
usemtl initialShadingGroup
f 1/1/1 2/2/2 4/4/3 3/3/4
s 1
f 15/22/5 16/23/6 17/24/7 18/25/8
s off
f 5/5/9 6/6/10 8/8/11 7/7/12
s 2
f 11/17/13 12/18/14 2/10/15 1/9/16
s 3
f 18/26/17 19/27/18 15/28/19
s 1
f 10/15/20 9/13/21 6/6/22 5/5/23
s off
f 7/11/24 11/16/25 10/14/26 5/12/27
s 2
f 7/7/28 8/8/29 12/18/14 11/17/13
s 3
f 13/19/30 11/16/31 1/1/32 3/3/33
s 1
f 3/3/34 4/4/35 14/21/36 13/20/37
f 13/20/37 14/21/36 16/23/6 15/22/5
s off
f 14/21/38 9/13/39 17/24/40 16/23/41
s 1
f 9/13/21 10/15/20 18/25/8 17/24/7
s off
f 10/14/42 11/16/43 19/27/44 18/26/45
s 3
f 11/16/31 13/19/30 15/28/19 19/27/18
