# This file uses centimeters as units for non-parametric coordinates.

mtllib Window.mtl
v -0.500000 -0.500000 0.500000
v -0.500000 0.500000 0.500000
v -0.500000 0.500000 -0.500000
v -0.500000 -0.500000 -0.500000
v -0.500000 -0.393062 -0.393062
v -0.500000 -0.393062 0.393062
v -0.500000 0.393062 0.393062
v -0.500000 0.393062 -0.393062
v -0.376497 -0.393062 -0.393062
v -0.376497 -0.393062 0.393062
v -0.376497 0.393062 0.393062
v -0.376497 0.393062 -0.393062
v -0.376497 -0.011244 -0.347630
v -0.376497 -0.011244 0.347630
v -0.376497 0.376994 0.347630
v -0.376497 0.376994 -0.347630
v -0.293463 -0.011244 -0.347630
v -0.293463 -0.011244 0.347630
v -0.293463 0.376994 0.347630
v -0.293463 0.376994 -0.347630
vt 0.375000 0.000000
vt 0.375000 0.250000
vt 0.125000 0.000000
vt 0.125000 0.250000
vt 0.125000 0.000000
vt 0.375000 0.000000
vt 0.375000 0.250000
vt 0.125000 0.250000
vt 0.125000 0.000000
vt 0.375000 0.000000
vt 0.375000 0.250000
vt 0.125000 0.250000
vt 0.125000 0.000000
vt 0.375000 0.000000
vt 0.375000 0.250000
vt 0.125000 0.250000
vt 0.125000 0.000000
vt 0.375000 0.000000
vt 0.375000 0.250000
vt 0.125000 0.250000
vn -1.000000 0.000000 0.000000
vn -1.000000 0.000000 0.000000
vn -1.000000 0.000000 0.000000
vn -1.000000 0.000000 0.000000
vn -1.000000 0.000000 0.000000
vn -1.000000 0.000000 0.000000
vn -1.000000 0.000000 0.000000
vn -1.000000 0.000000 0.000000
vn -1.000000 0.000000 0.000000
vn -1.000000 0.000000 0.000000
vn -1.000000 0.000000 0.000000
vn -1.000000 0.000000 0.000000
vn 0.000000 1.000000 0.000000
vn 0.000000 1.000000 0.000000
vn 0.000000 1.000000 0.000000
vn 0.000000 1.000000 0.000000
vn 0.000000 0.000000 -1.000000
vn 0.000000 0.000000 -1.000000
vn 0.000000 0.000000 -1.000000
vn 0.000000 0.000000 -1.000000
vn 0.000000 -1.000000 0.000000
vn 0.000000 -1.000000 0.000000
vn 0.000000 -1.000000 0.000000
vn 0.000000 -1.000000 0.000000
vn 0.000000 0.000000 1.000000
vn 0.000000 0.000000 1.000000
vn 0.000000 0.000000 1.000000
vn 0.000000 0.000000 1.000000
vn -1.000000 -0.000000 0.000000
vn -1.000000 -0.000000 0.000000
vn -1.000000 -0.000000 0.000000
vn -1.000000 -0.000000 0.000000
vn -1.000000 0.000000 0.000000
vn -1.000000 0.000000 0.000000
vn -1.000000 0.000000 0.000000
vn -1.000000 0.000000 0.000000
vn 0.000000 1.000000 0.000000
vn 0.000000 1.000000 0.000000
vn 0.000000 1.000000 0.000000
vn 0.000000 1.000000 0.000000
vn 0.000000 0.000000 -1.000000
vn 0.000000 0.000000 -1.000000
vn 0.000000 0.000000 -1.000000
vn 0.000000 0.000000 -1.000000
vn 0.000000 -1.000000 0.000000
vn 0.000000 -1.000000 0.000000
vn 0.000000 -1.000000 0.000000
vn 0.000000 -1.000000 0.000000
vn 0.000000 0.000000 1.000000
vn 0.000000 0.000000 1.000000
vn 0.000000 0.000000 1.000000
vn 0.000000 0.000000 1.000000
s off
usemtl initialShadingGroup
f 17/17/1 18/18/2 19/19/3 20/20/4
s 1
f 4/3/5 1/1/6 6/6/7 5/5/8
f 1/1/6 2/2/9 7/7/10 6/6/7
f 2/2/9 3/4/11 8/8/12 7/7/10
f 3/4/11 4/3/5 5/5/8 8/8/12
s off
f 5/5/13 6/6/14 10/10/15 9/9/16
f 6/6/17 7/7/18 11/11/19 10/10/20
f 7/7/21 8/8/22 12/12/23 11/11/24
f 8/8/25 5/5/26 9/9/27 12/12/28
s 2
f 9/9/29 10/10/30 14/14/31 13/13/32
f 10/10/30 11/11/33 15/15/34 14/14/31
f 11/11/33 12/12/35 16/16/36 15/15/34
f 12/12/35 9/9/29 13/13/32 16/16/36
s off
f 13/13/37 14/14/38 18/18/39 17/17/40
f 14/14/41 15/15/42 19/19/43 18/18/44
f 15/15/45 16/16/46 20/20/47 19/19/48
f 16/16/49 13/13/50 17/17/51 20/20/52
v -0.365555 0.189374 0.340342
v -0.334537 0.189374 0.340342
v -0.365555 0.224095 0.340342
v -0.334537 0.224095 0.340342
v -0.365555 0.224095 -0.355006
v -0.334537 0.224095 -0.355006
v -0.365555 0.189374 -0.355006
v -0.334537 0.189374 -0.355006
vt 0.375000 0.000000
vt 0.625000 0.000000
vt 0.375000 0.250000
vt 0.625000 0.250000
vt 0.375000 0.500000
vt 0.625000 0.500000
vt 0.375000 0.750000
vt 0.625000 0.750000
vt 0.375000 1.000000
vt 0.625000 1.000000
vt 0.875000 0.000000
vt 0.875000 0.250000
vt 0.125000 0.000000
vt 0.125000 0.250000
vn 0.000000 0.000000 1.000000
vn 0.000000 0.000000 1.000000
vn 0.000000 0.000000 1.000000
vn 0.000000 0.000000 1.000000
vn 0.000000 1.000000 0.000000
vn 0.000000 1.000000 0.000000
vn 0.000000 1.000000 0.000000
vn 0.000000 1.000000 0.000000
vn 0.000000 0.000000 -1.000000
vn 0.000000 0.000000 -1.000000
vn 0.000000 0.000000 -1.000000
vn 0.000000 0.000000 -1.000000
vn 0.000000 -1.000000 0.000000
vn 0.000000 -1.000000 0.000000
vn 0.000000 -1.000000 0.000000
vn 0.000000 -1.000000 0.000000
vn 1.000000 0.000000 0.000000
vn 1.000000 0.000000 0.000000
vn 1.000000 0.000000 0.000000
vn 1.000000 0.000000 0.000000
vn -1.000000 0.000000 0.000000
vn -1.000000 0.000000 0.000000
vn -1.000000 0.000000 0.000000
vn -1.000000 0.000000 0.000000
s off
f 21/21/53 22/22/54 24/24/55 23/23/56
f 23/23/57 24/24/58 26/26/59 25/25/60
f 25/25/61 26/26/62 28/28/63 27/27/64
f 27/27/65 28/28/66 22/30/67 21/29/68
f 22/22/69 28/31/70 26/32/71 24/24/72
f 27/33/73 21/21/74 23/23/75 25/34/76
v -0.365555 -0.066000 0.007269
v -0.334537 -0.066000 0.007269
v -0.365555 0.377578 0.007269
v -0.334537 0.377578 0.007269
v -0.365555 0.377578 -0.021934
v -0.334537 0.377578 -0.021934
v -0.365555 -0.066000 -0.021934
v -0.334537 -0.066000 -0.021934
vt 0.375000 0.000000
vt 0.625000 0.000000
vt 0.375000 0.250000
vt 0.625000 0.250000
vt 0.375000 0.500000
vt 0.625000 0.500000
vt 0.375000 0.750000
vt 0.625000 0.750000
vt 0.125000 0.000000
vt 0.125000 0.250000
vn 0.000000 0.000000 1.000000
vn 0.000000 0.000000 1.000000
vn 0.000000 0.000000 1.000000
vn 0.000000 0.000000 1.000000
vn 0.000000 0.000000 -1.000000
vn 0.000000 0.000000 -1.000000
vn 0.000000 0.000000 -1.000000
vn 0.000000 0.000000 -1.000000
vn -1.000000 0.000000 0.000000
vn -1.000000 0.000000 0.000000
vn -1.000000 0.000000 0.000000
vn -1.000000 0.000000 0.000000
s off
f 29/35/77 30/36/78 32/38/79 31/37/80
f 33/39/81 34/40/82 36/42/83 35/41/84
f 35/43/85 29/35/86 31/37/87 33/44/88
